<svg width="286" height="27" viewBox="0 0 286 27" fill="none" xmlns="http://www.w3.org/2000/svg">
<g filter="url(#filter0_d_2_258)">
<g clip-path="url(#clip0_2_258)">
<path fill-rule="evenodd" clip-rule="evenodd" d="M80.6393 13.5956L88.0234 17.8859C86.8401 18.597 85.4674 19 84 19C82.793 19 81.6569 18.7393 80.6393 18.2415V13.5956ZM80.0473 9.39976V17.9331C77.8226 16.7005 76.2842 14.4012 76.0476 11.7227L80.0473 9.39976ZM92 10.9403V11.0114C92 13.7136 90.651 16.1077 88.5919 17.5299L84.5922 15.2306L92 10.9403ZM87.9529 4.06667C90.1776 5.29926 91.716 7.59852 91.9527 10.277L87.9529 12.6V4.06667ZM79.4081 4.46963L83.4078 6.76889L76 11.0356V11.0119C76 8.28593 77.349 5.89185 79.4081 4.46963ZM84.0005 3C85.2075 3 86.3435 3.26074 87.3612 3.75852V8.38074L79.977 4.09037C81.1604 3.40296 82.5331 3 84.0005 3Z" fill="white"/>
</g>
<path d="M101.6 6.324H100.22V12H99.128V6.324H98.276V5.424H99.128V4.956C99.128 4.22 99.316 3.684 99.692 3.348C100.076 3.004 100.688 2.832 101.528 2.832V3.744C101.048 3.744 100.708 3.84 100.508 4.032C100.316 4.216 100.22 4.524 100.22 4.956V5.424H101.6V6.324ZM106.953 0.696L103.665 14.04H102.585L105.861 0.696H106.953ZM113.932 4.272H109.72V7.008C109.904 6.752 110.176 6.544 110.536 6.384C110.896 6.216 111.284 6.132 111.7 6.132C112.364 6.132 112.904 6.272 113.32 6.552C113.736 6.824 114.032 7.18 114.208 7.62C114.392 8.052 114.484 8.512 114.484 9C114.484 9.576 114.376 10.092 114.16 10.548C113.944 11.004 113.612 11.364 113.164 11.628C112.724 11.892 112.176 12.024 111.52 12.024C110.68 12.024 110 11.808 109.48 11.376C108.96 10.944 108.644 10.368 108.532 9.648H109.6C109.704 10.104 109.924 10.46 110.26 10.716C110.596 10.972 111.02 11.1 111.532 11.1C112.164 11.1 112.64 10.912 112.96 10.536C113.28 10.152 113.44 9.648 113.44 9.024C113.44 8.4 113.28 7.92 112.96 7.584C112.64 7.24 112.168 7.068 111.544 7.068C111.12 7.068 110.748 7.172 110.428 7.38C110.116 7.58 109.888 7.856 109.744 8.208H108.712V3.312H113.932V4.272ZM117.243 10.488L115.899 13.716H115.167L116.043 10.488H117.243ZM123.15 5.388C122.974 4.5 122.426 4.056 121.506 4.056C120.794 4.056 120.262 4.332 119.91 4.884C119.558 5.428 119.386 6.328 119.394 7.584C119.578 7.168 119.882 6.844 120.306 6.612C120.738 6.372 121.218 6.252 121.746 6.252C122.57 6.252 123.226 6.508 123.714 7.02C124.21 7.532 124.458 8.24 124.458 9.144C124.458 9.688 124.35 10.176 124.134 10.608C123.926 11.04 123.606 11.384 123.174 11.64C122.75 11.896 122.234 12.024 121.626 12.024C120.802 12.024 120.158 11.84 119.694 11.472C119.23 11.104 118.906 10.596 118.722 9.948C118.538 9.3 118.446 8.5 118.446 7.548C118.446 4.612 119.47 3.144 121.518 3.144C122.302 3.144 122.918 3.356 123.366 3.78C123.814 4.204 124.078 4.74 124.158 5.388H123.15ZM121.518 7.176C121.174 7.176 120.85 7.248 120.546 7.392C120.242 7.528 119.994 7.74 119.802 8.028C119.618 8.308 119.526 8.652 119.526 9.06C119.526 9.668 119.702 10.164 120.054 10.548C120.406 10.924 120.91 11.112 121.566 11.112C122.126 11.112 122.57 10.94 122.898 10.596C123.234 10.244 123.402 9.772 123.402 9.18C123.402 8.556 123.242 8.068 122.922 7.716C122.602 7.356 122.134 7.176 121.518 7.176Z" fill="white"/>
<g clip-path="url(#clip1_2_258)">
<path fill-rule="evenodd" clip-rule="evenodd" d="M222 9.44452C221.038 9.44452 220.26 8.70036 220.26 7.78061C220.26 6.86295 221.038 6.11879 222 6.11879C222.96 6.11879 223.738 6.86295 223.738 7.78061C223.738 8.70036 222.96 9.44452 222 9.44452ZM222 3C219.239 3 217 5.14051 217 7.78061C217 9.70791 219.659 15.471 221.099 18.4497C221.453 19.1834 222.544 19.1834 222.901 18.4497C224.339 15.471 227 9.70791 227 7.78061C227 5.14051 224.761 3 222 3Z" fill="white"/>
</g>
<path d="M235.576 12.084C235.024 12.084 234.528 11.988 234.088 11.796C233.656 11.596 233.316 11.324 233.068 10.98C232.82 10.628 232.692 10.224 232.684 9.768H233.848C233.888 10.16 234.048 10.492 234.328 10.764C234.616 11.028 235.032 11.16 235.576 11.16C236.096 11.16 236.504 11.032 236.8 10.776C237.104 10.512 237.256 10.176 237.256 9.768C237.256 9.448 237.168 9.188 236.992 8.988C236.816 8.788 236.596 8.636 236.332 8.532C236.068 8.428 235.712 8.316 235.264 8.196C234.712 8.052 234.268 7.908 233.932 7.764C233.604 7.62 233.32 7.396 233.08 7.092C232.848 6.78 232.732 6.364 232.732 5.844C232.732 5.388 232.848 4.984 233.08 4.632C233.312 4.28 233.636 4.008 234.052 3.816C234.476 3.624 234.96 3.528 235.504 3.528C236.288 3.528 236.928 3.724 237.424 4.116C237.928 4.508 238.212 5.028 238.276 5.676H237.076C237.036 5.356 236.868 5.076 236.572 4.836C236.276 4.588 235.884 4.464 235.396 4.464C234.94 4.464 234.568 4.584 234.28 4.824C233.992 5.056 233.848 5.384 233.848 5.808C233.848 6.112 233.932 6.36 234.1 6.552C234.276 6.744 234.488 6.892 234.736 6.996C234.992 7.092 235.348 7.204 235.804 7.332C236.356 7.484 236.8 7.636 237.136 7.788C237.472 7.932 237.76 8.16 238 8.472C238.24 8.776 238.36 9.192 238.36 9.72C238.36 10.128 238.252 10.512 238.036 10.872C237.82 11.232 237.5 11.524 237.076 11.748C236.652 11.972 236.152 12.084 235.576 12.084ZM248.727 5.424L246.675 12H245.547L243.963 6.78L242.379 12H241.251L239.187 5.424H240.303L241.815 10.944L243.447 5.424H244.563L246.159 10.956L247.647 5.424H248.727ZM255.811 8.46C255.811 8.668 255.799 8.888 255.775 9.12H250.519C250.559 9.768 250.779 10.276 251.179 10.644C251.587 11.004 252.079 11.184 252.655 11.184C253.127 11.184 253.519 11.076 253.831 10.86C254.151 10.636 254.375 10.34 254.503 9.972H255.679C255.503 10.604 255.151 11.12 254.623 11.52C254.095 11.912 253.439 12.108 252.655 12.108C252.031 12.108 251.471 11.968 250.975 11.688C250.487 11.408 250.103 11.012 249.823 10.5C249.543 9.98 249.403 9.38 249.403 8.7C249.403 8.02 249.539 7.424 249.811 6.912C250.083 6.4 250.463 6.008 250.951 5.736C251.447 5.456 252.015 5.316 252.655 5.316C253.279 5.316 253.831 5.452 254.311 5.724C254.791 5.996 255.159 6.372 255.415 6.852C255.679 7.324 255.811 7.86 255.811 8.46ZM254.683 8.232C254.683 7.816 254.591 7.46 254.407 7.164C254.223 6.86 253.971 6.632 253.651 6.48C253.339 6.32 252.991 6.24 252.607 6.24C252.055 6.24 251.583 6.416 251.191 6.768C250.807 7.12 250.587 7.608 250.531 8.232H254.683ZM256.844 8.688C256.844 8.016 256.98 7.428 257.252 6.924C257.524 6.412 257.896 6.016 258.368 5.736C258.848 5.456 259.384 5.316 259.976 5.316C260.488 5.316 260.964 5.436 261.404 5.676C261.844 5.908 262.18 6.216 262.412 6.6V3.12H263.516V12H262.412V10.764C262.196 11.156 261.876 11.48 261.452 11.736C261.028 11.984 260.532 12.108 259.964 12.108C259.38 12.108 258.848 11.964 258.368 11.676C257.896 11.388 257.524 10.984 257.252 10.464C256.98 9.944 256.844 9.352 256.844 8.688ZM262.412 8.7C262.412 8.204 262.312 7.772 262.112 7.404C261.912 7.036 261.64 6.756 261.296 6.564C260.96 6.364 260.588 6.264 260.18 6.264C259.772 6.264 259.4 6.36 259.064 6.552C258.728 6.744 258.46 7.024 258.26 7.392C258.06 7.76 257.96 8.192 257.96 8.688C257.96 9.192 258.06 9.632 258.26 10.008C258.46 10.376 258.728 10.66 259.064 10.86C259.4 11.052 259.772 11.148 260.18 11.148C260.588 11.148 260.96 11.052 261.296 10.86C261.64 10.66 261.912 10.376 262.112 10.008C262.312 9.632 262.412 9.196 262.412 8.7ZM271.362 8.46C271.362 8.668 271.35 8.888 271.326 9.12H266.07C266.11 9.768 266.33 10.276 266.73 10.644C267.138 11.004 267.63 11.184 268.206 11.184C268.678 11.184 269.07 11.076 269.382 10.86C269.702 10.636 269.926 10.34 270.054 9.972H271.23C271.054 10.604 270.702 11.12 270.174 11.52C269.646 11.912 268.99 12.108 268.206 12.108C267.582 12.108 267.022 11.968 266.526 11.688C266.038 11.408 265.654 11.012 265.374 10.5C265.094 9.98 264.954 9.38 264.954 8.7C264.954 8.02 265.09 7.424 265.362 6.912C265.634 6.4 266.014 6.008 266.502 5.736C266.998 5.456 267.566 5.316 268.206 5.316C268.83 5.316 269.382 5.452 269.862 5.724C270.342 5.996 270.71 6.372 270.966 6.852C271.23 7.324 271.362 7.86 271.362 8.46ZM270.234 8.232C270.234 7.816 270.142 7.46 269.958 7.164C269.774 6.86 269.522 6.632 269.202 6.48C268.89 6.32 268.542 6.24 268.158 6.24C267.606 6.24 267.134 6.416 266.742 6.768C266.358 7.12 266.138 7.608 266.082 8.232H270.234ZM276.007 5.304C276.807 5.304 277.455 5.548 277.951 6.036C278.447 6.516 278.695 7.212 278.695 8.124V12H277.615V8.28C277.615 7.624 277.451 7.124 277.123 6.78C276.795 6.428 276.347 6.252 275.779 6.252C275.203 6.252 274.743 6.432 274.399 6.792C274.063 7.152 273.895 7.676 273.895 8.364V12H272.803V5.424H273.895V6.36C274.111 6.024 274.403 5.764 274.771 5.58C275.147 5.396 275.559 5.304 276.007 5.304Z" fill="white"/>
<g clip-path="url(#clip2_2_258)">
<path fill-rule="evenodd" clip-rule="evenodd" d="M24.3729 3C24.4375 3 24.4899 3.05238 24.4899 3.11691V3.23936C24.4899 3.3039 24.4375 3.35628 24.3729 3.35628H24.2387V3.7507C28.3393 3.87669 31.625 7.24071 31.625 11.373C31.625 15.5856 28.2114 19 24.0004 19C19.7894 19 16.375 15.5856 16.375 11.373C16.375 7.24102 19.661 3.87708 23.7613 3.75078V3.35628H23.6271C23.5625 3.35628 23.5102 3.3039 23.5102 3.23936V3.11691C23.5102 3.05238 23.5625 3 23.6271 3H24.3729ZM24.1911 4.75062V5.41987C24.1911 5.5254 24.1055 5.61093 24 5.61093C23.8945 5.61093 23.8089 5.5254 23.8089 5.41987V4.75062C20.3016 4.85038 17.4781 7.67406 17.3788 11.1822H18.0479C18.1534 11.1822 18.239 11.2677 18.239 11.3733C18.239 11.4789 18.1534 11.5644 18.0479 11.5644H17.3788C17.4786 15.0723 20.3019 17.8962 23.8089 17.996V17.3268C23.8089 17.2212 23.8945 17.1356 24 17.1356C24.1055 17.1356 24.1911 17.2212 24.1911 17.3268V17.996C27.6984 17.8966 30.5214 15.0725 30.6212 11.5644H29.9521C29.8466 11.5644 29.7611 11.4789 29.7611 11.3733C29.7611 11.2677 29.8466 11.1822 29.9521 11.1822H30.6212C30.5219 7.67375 27.6987 4.84999 24.1911 4.75062ZM24 11.017C24.1967 11.017 24.3562 11.1765 24.3562 11.3733C24.3562 11.3936 24.3535 11.4131 24.3503 11.4324L26.6161 13.4819C26.6742 13.5345 26.7162 13.6026 26.7371 13.6782L26.7677 13.7894C26.7827 13.8435 26.7363 13.8948 26.681 13.8854L26.5672 13.866C26.4899 13.8529 26.418 13.8179 26.3598 13.7653L24.0936 11.7155C24.0636 11.7238 24.0326 11.7296 24 11.7296C23.8034 11.7296 23.6438 11.5701 23.6438 11.3733C23.6438 11.1765 23.8034 11.017 24 11.017Z" fill="white"/>
</g>
<path d="M38.744 7.572C38.744 6.196 38.968 5.124 39.416 4.356C39.864 3.58 40.648 3.192 41.768 3.192C42.88 3.192 43.66 3.58 44.108 4.356C44.556 5.124 44.78 6.196 44.78 7.572C44.78 8.972 44.556 10.06 44.108 10.836C43.66 11.612 42.88 12 41.768 12C40.648 12 39.864 11.612 39.416 10.836C38.968 10.06 38.744 8.972 38.744 7.572ZM43.7 7.572C43.7 6.876 43.652 6.288 43.556 5.808C43.468 5.32 43.28 4.928 42.992 4.632C42.712 4.336 42.304 4.188 41.768 4.188C41.224 4.188 40.808 4.336 40.52 4.632C40.24 4.928 40.052 5.32 39.956 5.808C39.868 6.288 39.824 6.876 39.824 7.572C39.824 8.292 39.868 8.896 39.956 9.384C40.052 9.872 40.24 10.264 40.52 10.56C40.808 10.856 41.224 11.004 41.768 11.004C42.304 11.004 42.712 10.856 42.992 10.56C43.28 10.264 43.468 9.872 43.556 9.384C43.652 8.896 43.7 8.292 43.7 7.572ZM47.5872 10.488L46.2432 13.716H45.5112L46.3872 10.488H47.5872ZM50.2421 7.488C49.7941 7.312 49.4501 7.056 49.2101 6.72C48.9701 6.384 48.8501 5.976 48.8501 5.496C48.8501 5.064 48.9581 4.676 49.1741 4.332C49.3901 3.98 49.7101 3.704 50.1341 3.504C50.5661 3.296 51.0861 3.192 51.6941 3.192C52.3021 3.192 52.8181 3.296 53.2421 3.504C53.6741 3.704 53.9981 3.98 54.2141 4.332C54.4381 4.676 54.5501 5.064 54.5501 5.496C54.5501 5.96 54.4261 6.368 54.1781 6.72C53.9301 7.064 53.5901 7.32 53.1581 7.488C53.6541 7.64 54.0461 7.908 54.3341 8.292C54.6301 8.668 54.7781 9.124 54.7781 9.66C54.7781 10.18 54.6501 10.636 54.3941 11.028C54.1381 11.412 53.7741 11.712 53.3021 11.928C52.8381 12.136 52.3021 12.24 51.6941 12.24C51.0861 12.24 50.5501 12.136 50.0861 11.928C49.6301 11.712 49.2741 11.412 49.0181 11.028C48.7621 10.636 48.6341 10.18 48.6341 9.66C48.6341 9.124 48.7781 8.664 49.0661 8.28C49.3541 7.896 49.7461 7.632 50.2421 7.488ZM53.4941 5.628C53.4941 5.14 53.3341 4.764 53.0141 4.5C52.6941 4.236 52.2541 4.104 51.6941 4.104C51.1421 4.104 50.7061 4.236 50.3861 4.5C50.0661 4.764 49.9061 5.144 49.9061 5.64C49.9061 6.088 50.0701 6.448 50.3981 6.72C50.7341 6.992 51.1661 7.128 51.6941 7.128C52.2301 7.128 52.6621 6.992 52.9901 6.72C53.3261 6.44 53.4941 6.076 53.4941 5.628ZM51.6941 7.968C51.1021 7.968 50.6181 8.108 50.2421 8.388C49.8661 8.66 49.6781 9.072 49.6781 9.624C49.6781 10.136 49.8581 10.548 50.2181 10.86C50.5861 11.172 51.0781 11.328 51.6941 11.328C52.3101 11.328 52.7981 11.172 53.1581 10.86C53.5181 10.548 53.6981 10.136 53.6981 9.624C53.6981 9.088 53.5141 8.68 53.1461 8.4C52.7781 8.112 52.2941 7.968 51.6941 7.968ZM56.9604 2.448L56.8164 4.836H56.0604L55.9044 2.448H56.9604ZM58.8705 2.448L58.7265 4.836H57.9705L57.8145 2.448H58.8705Z" fill="white"/>
<g clip-path="url(#clip3_2_258)">
<path fill-rule="evenodd" clip-rule="evenodd" d="M170.899 3C172.612 3 174 4.39911 174 6.125V15.875C174 17.6009 172.612 19 170.899 19H145.101C143.388 19 142 17.6009 142 15.875V6.125C142 4.39911 143.388 3 145.101 3H170.899ZM154.71 5.911C154.031 5.911 153.428 6.02737 152.9 6.26012C152.372 6.49287 151.962 6.82775 151.67 7.26475C151.378 7.70175 151.232 8.21475 151.232 8.80375C151.232 9.43075 151.375 9.93188 151.663 10.3071C151.95 10.6824 152.294 10.9626 152.695 11.1479C153.096 11.3331 153.616 11.5208 154.257 11.7107C154.729 11.8438 155.099 11.9649 155.367 12.0741C155.636 12.1834 155.86 12.333 156.039 12.523C156.218 12.713 156.308 12.9552 156.308 13.2498C156.308 13.6108 156.176 13.9029 155.912 14.1261C155.648 14.3494 155.285 14.461 154.823 14.461C154.371 14.461 154.015 14.3422 153.756 14.1047C153.507 13.8767 153.364 13.57 153.328 13.1844L153.324 13.1357H151.203L151.205 13.2006C151.225 13.7813 151.389 14.2869 151.698 14.7175C152.019 15.164 152.455 15.506 153.006 15.7435C153.558 15.981 154.177 16.0997 154.865 16.0997C155.591 16.0997 156.218 15.9644 156.746 15.6936C157.274 15.4229 157.675 15.0595 157.948 14.6035C158.221 14.1475 158.358 13.6535 158.358 13.1215C158.358 12.504 158.212 12.0052 157.92 11.6252C157.627 11.2452 157.279 10.9602 156.873 10.7702C156.468 10.5802 155.945 10.3903 155.304 10.2003C154.832 10.0578 154.467 9.93188 154.208 9.82263C153.949 9.71338 153.732 9.57087 153.558 9.39512C153.383 9.21938 153.296 8.9985 153.296 8.7325C153.296 8.3525 153.411 8.06275 153.642 7.86325C153.873 7.66375 154.182 7.564 154.569 7.564C155.012 7.564 155.367 7.67563 155.636 7.89888C155.894 8.11282 156.036 8.3813 156.064 8.70431L156.067 8.74675H158.245L158.24 8.68617C158.163 7.82222 157.813 7.14654 157.191 6.65913C156.555 6.16038 155.728 5.911 154.71 5.911ZM165.394 5.911C164.47 5.911 163.622 6.1295 162.849 6.5665C162.076 7.0035 161.463 7.60913 161.011 8.38338C160.559 9.15763 160.332 10.0293 160.332 10.9983C160.332 11.9768 160.559 12.8531 161.011 13.6274C161.463 14.4016 162.076 15.0072 162.849 15.4443C163.622 15.8813 164.47 16.0997 165.394 16.0997C166.318 16.0997 167.166 15.8813 167.939 15.4443C168.712 15.0072 169.323 14.4016 169.77 13.6274C170.218 12.8531 170.442 11.9768 170.442 10.9983C170.442 10.0293 170.218 9.15763 169.77 8.38338C169.323 7.60913 168.715 7.0035 167.946 6.5665C167.178 6.1295 166.327 5.911 165.394 5.911ZM148.762 6.0535H146.783V16H148.762V6.0535ZM165.394 7.7065C165.988 7.7065 166.511 7.8395 166.964 8.1055C167.416 8.3715 167.77 8.75387 168.024 9.25262C168.279 9.75138 168.406 10.3333 168.406 10.9983C168.406 11.6632 168.279 12.2475 168.024 12.751C167.77 13.2545 167.416 13.6416 166.964 13.9124C166.511 14.1831 165.988 14.3185 165.394 14.3185C164.8 14.3185 164.275 14.1831 163.818 13.9124C163.36 13.6416 163.005 13.2545 162.75 12.751C162.496 12.2475 162.368 11.6632 162.368 10.9983C162.368 10.3333 162.496 9.75138 162.75 9.25262C163.005 8.75387 163.36 8.3715 163.818 8.1055C164.275 7.8395 164.8 7.7065 165.394 7.7065Z" fill="white"/>
</g>
<path d="M181.456 4.32V3.324H183.712V12H182.608V4.32H181.456ZM185.588 7.572C185.588 6.196 185.812 5.124 186.26 4.356C186.708 3.58 187.492 3.192 188.612 3.192C189.724 3.192 190.504 3.58 190.952 4.356C191.4 5.124 191.624 6.196 191.624 7.572C191.624 8.972 191.4 10.06 190.952 10.836C190.504 11.612 189.724 12 188.612 12C187.492 12 186.708 11.612 186.26 10.836C185.812 10.06 185.588 8.972 185.588 7.572ZM190.544 7.572C190.544 6.876 190.496 6.288 190.4 5.808C190.312 5.32 190.124 4.928 189.836 4.632C189.556 4.336 189.148 4.188 188.612 4.188C188.068 4.188 187.652 4.336 187.364 4.632C187.084 4.928 186.896 5.32 186.8 5.808C186.712 6.288 186.668 6.876 186.668 7.572C186.668 8.292 186.712 8.896 186.8 9.384C186.896 9.872 187.084 10.264 187.364 10.56C187.652 10.856 188.068 11.004 188.612 11.004C189.148 11.004 189.556 10.856 189.836 10.56C190.124 10.264 190.312 9.872 190.4 9.384C190.496 8.896 190.544 8.292 190.544 7.572ZM193.123 7.572C193.123 6.196 193.347 5.124 193.795 4.356C194.243 3.58 195.027 3.192 196.147 3.192C197.259 3.192 198.039 3.58 198.487 4.356C198.935 5.124 199.159 6.196 199.159 7.572C199.159 8.972 198.935 10.06 198.487 10.836C198.039 11.612 197.259 12 196.147 12C195.027 12 194.243 11.612 193.795 10.836C193.347 10.06 193.123 8.972 193.123 7.572ZM198.079 7.572C198.079 6.876 198.031 6.288 197.935 5.808C197.847 5.32 197.659 4.928 197.371 4.632C197.091 4.336 196.683 4.188 196.147 4.188C195.603 4.188 195.187 4.336 194.899 4.632C194.619 4.928 194.431 5.32 194.335 5.808C194.247 6.288 194.203 6.876 194.203 7.572C194.203 8.292 194.247 8.896 194.335 9.384C194.431 9.872 194.619 10.264 194.899 10.56C195.187 10.856 195.603 11.004 196.147 11.004C196.683 11.004 197.091 10.856 197.371 10.56C197.659 10.264 197.847 9.872 197.935 9.384C198.031 8.896 198.079 8.292 198.079 7.572Z" fill="white"/>
</g>
<defs>
<filter id="filter0_d_2_258" x="-3.75" y="0.696045" width="289.75" height="26.304" filterUnits="userSpaceOnUse" color-interpolation-filters="sRGB">
<feFlood flood-opacity="0" result="BackgroundImageFix"/>
<feColorMatrix in="SourceAlpha" type="matrix" values="0 0 0 0 0 0 0 0 0 0 0 0 0 0 0 0 0 0 127 0" result="hardAlpha"/>
<feOffset dy="4"/>
<feGaussianBlur stdDeviation="2"/>
<feComposite in2="hardAlpha" operator="out"/>
<feColorMatrix type="matrix" values="0 0 0 0 0 0 0 0 0 0 0 0 0 0 0 0 0 0 0.25 0"/>
<feBlend mode="normal" in2="BackgroundImageFix" result="effect1_dropShadow_2_258"/>
<feBlend mode="normal" in="SourceGraphic" in2="effect1_dropShadow_2_258" result="shape"/>
</filter>
<clipPath id="clip0_2_258">
<rect width="16" height="16" fill="white" transform="translate(76 3)"/>
</clipPath>
<clipPath id="clip1_2_258">
<rect width="10" height="16" fill="white" transform="translate(217 3)"/>
</clipPath>
<clipPath id="clip2_2_258">
<rect width="16" height="16" fill="white" transform="translate(16 3)"/>
</clipPath>
<clipPath id="clip3_2_258">
<rect width="32" height="16" fill="white" transform="translate(142 3)"/>
</clipPath>
</defs>
</svg>
