<svg width="252" height="19" viewBox="0 0 252 19" fill="none" xmlns="http://www.w3.org/2000/svg">
<g clip-path="url(#clip0_2_339)">
<path fill-rule="evenodd" clip-rule="evenodd" d="M24.3729 3C24.4375 3 24.4899 3.05238 24.4899 3.11691V3.23936C24.4899 3.3039 24.4375 3.35628 24.3729 3.35628H24.2387V3.7507C28.3393 3.87669 31.625 7.24071 31.625 11.373C31.625 15.5856 28.2114 19 24.0004 19C19.7894 19 16.375 15.5856 16.375 11.373C16.375 7.24102 19.661 3.87708 23.7613 3.75078V3.35628H23.6271C23.5625 3.35628 23.5102 3.3039 23.5102 3.23936V3.11691C23.5102 3.05238 23.5625 3 23.6271 3H24.3729ZM24.1911 4.75062V5.41987C24.1911 5.5254 24.1055 5.61093 24 5.61093C23.8945 5.61093 23.8089 5.5254 23.8089 5.41987V4.75062C20.3016 4.85038 17.4781 7.67406 17.3788 11.1822H18.0479C18.1534 11.1822 18.239 11.2677 18.239 11.3733C18.239 11.4789 18.1534 11.5644 18.0479 11.5644H17.3788C17.4786 15.0723 20.3019 17.8962 23.8089 17.996V17.3268C23.8089 17.2212 23.8945 17.1356 24 17.1356C24.1055 17.1356 24.1911 17.2212 24.1911 17.3268V17.996C27.6984 17.8966 30.5214 15.0725 30.6212 11.5644H29.9521C29.8466 11.5644 29.7611 11.4789 29.7611 11.3733C29.7611 11.2677 29.8466 11.1822 29.9521 11.1822H30.6212C30.5219 7.67375 27.6987 4.84999 24.1911 4.75062ZM24 11.017C24.1967 11.017 24.3562 11.1765 24.3562 11.3733C24.3562 11.3936 24.3535 11.4131 24.3503 11.4324L26.6161 13.4819C26.6742 13.5345 26.7162 13.6026 26.7371 13.6782L26.7677 13.7894C26.7827 13.8435 26.7363 13.8948 26.681 13.8854L26.5672 13.866C26.4899 13.8529 26.418 13.8179 26.3598 13.7653L24.0936 11.7155C24.0636 11.7238 24.0326 11.7296 24 11.7296C23.8034 11.7296 23.6438 11.5701 23.6438 11.3733C23.6438 11.1765 23.8034 11.017 24 11.017Z" fill="white"/>
</g>
<path d="M43.58 5.388C43.404 4.5 42.856 4.056 41.936 4.056C41.224 4.056 40.692 4.332 40.34 4.884C39.988 5.428 39.816 6.328 39.824 7.584C40.008 7.168 40.312 6.844 40.736 6.612C41.168 6.372 41.648 6.252 42.176 6.252C43 6.252 43.656 6.508 44.144 7.02C44.64 7.532 44.888 8.24 44.888 9.144C44.888 9.688 44.78 10.176 44.564 10.608C44.356 11.04 44.036 11.384 43.604 11.64C43.18 11.896 42.664 12.024 42.056 12.024C41.232 12.024 40.588 11.84 40.124 11.472C39.66 11.104 39.336 10.596 39.152 9.948C38.968 9.3 38.876 8.5 38.876 7.548C38.876 4.612 39.9 3.144 41.948 3.144C42.732 3.144 43.348 3.356 43.796 3.78C44.244 4.204 44.508 4.74 44.588 5.388H43.58ZM41.948 7.176C41.604 7.176 41.28 7.248 40.976 7.392C40.672 7.528 40.424 7.74 40.232 8.028C40.048 8.308 39.956 8.652 39.956 9.06C39.956 9.668 40.132 10.164 40.484 10.548C40.836 10.924 41.34 11.112 41.996 11.112C42.556 11.112 43 10.94 43.328 10.596C43.664 10.244 43.832 9.772 43.832 9.18C43.832 8.556 43.672 8.068 43.352 7.716C43.032 7.356 42.564 7.176 41.948 7.176ZM47.0932 2.448L46.9492 4.836H46.1932L46.0372 2.448H47.0932ZM49.0033 2.448L48.8593 4.836H48.1033L47.9473 2.448H49.0033Z" fill="white"/>
<g clip-path="url(#clip1_2_339)">
<path fill-rule="evenodd" clip-rule="evenodd" d="M70.6393 13.5956L78.0234 17.8859C76.8401 18.597 75.4674 19 74 19C72.793 19 71.6569 18.7393 70.6393 18.2415V13.5956ZM70.0473 9.39976V17.9331C67.8226 16.7005 66.2842 14.4012 66.0476 11.7227L70.0473 9.39976ZM82 10.9403V11.0114C82 13.7136 80.651 16.1077 78.5919 17.5299L74.5922 15.2306L82 10.9403ZM77.9529 4.06667C80.1776 5.29926 81.716 7.59852 81.9527 10.277L77.9529 12.6V4.06667ZM69.4081 4.46963L73.4078 6.76889L66 11.0356V11.0119C66 8.28593 67.349 5.89185 69.4081 4.46963ZM74.0005 3C75.2075 3 76.3435 3.26074 77.3612 3.75852V8.38074L69.977 4.09037C71.1604 3.40296 72.5331 3 74.0005 3Z" fill="white"/>
</g>
<path d="M91.6 6.324H90.22V12H89.128V6.324H88.276V5.424H89.128V4.956C89.128 4.22 89.316 3.684 89.692 3.348C90.076 3.004 90.688 2.832 91.528 2.832V3.744C91.048 3.744 90.708 3.84 90.508 4.032C90.316 4.216 90.22 4.524 90.22 4.956V5.424H91.6V6.324ZM96.9532 0.696L93.6652 14.04H92.5852L95.8612 0.696H96.9532ZM98.1123 4.32V3.324H100.368V12H99.2643V4.32H98.1123ZM101.956 4.32V3.324H104.212V12H103.108V4.32H101.956Z" fill="white"/>
<g clip-path="url(#clip2_2_339)">
<path fill-rule="evenodd" clip-rule="evenodd" d="M150.899 3C152.612 3 154 4.39911 154 6.125V15.875C154 17.6009 152.612 19 150.899 19H125.101C123.388 19 122 17.6009 122 15.875V6.125C122 4.39911 123.388 3 125.101 3H150.899ZM134.71 5.911C134.031 5.911 133.428 6.02737 132.9 6.26012C132.372 6.49287 131.962 6.82775 131.67 7.26475C131.378 7.70175 131.232 8.21475 131.232 8.80375C131.232 9.43075 131.375 9.93188 131.663 10.3071C131.95 10.6824 132.294 10.9626 132.695 11.1479C133.096 11.3331 133.616 11.5208 134.257 11.7107C134.729 11.8438 135.099 11.9649 135.367 12.0741C135.636 12.1834 135.86 12.333 136.039 12.523C136.218 12.713 136.308 12.9552 136.308 13.2498C136.308 13.6108 136.176 13.9029 135.912 14.1261C135.648 14.3494 135.285 14.461 134.823 14.461C134.371 14.461 134.015 14.3422 133.756 14.1047C133.507 13.8767 133.364 13.57 133.328 13.1844L133.324 13.1357H131.203L131.205 13.2006C131.225 13.7813 131.389 14.2869 131.698 14.7175C132.019 15.164 132.455 15.506 133.006 15.7435C133.558 15.981 134.177 16.0997 134.865 16.0997C135.591 16.0997 136.218 15.9644 136.746 15.6936C137.274 15.4229 137.675 15.0595 137.948 14.6035C138.221 14.1475 138.358 13.6535 138.358 13.1215C138.358 12.504 138.212 12.0052 137.92 11.6252C137.627 11.2452 137.279 10.9602 136.873 10.7702C136.468 10.5802 135.945 10.3903 135.304 10.2003C134.832 10.0578 134.467 9.93188 134.208 9.82263C133.949 9.71338 133.732 9.57087 133.558 9.39512C133.383 9.21938 133.296 8.9985 133.296 8.7325C133.296 8.3525 133.411 8.06275 133.642 7.86325C133.873 7.66375 134.182 7.564 134.569 7.564C135.012 7.564 135.367 7.67563 135.636 7.89888C135.894 8.11282 136.036 8.3813 136.064 8.70431L136.067 8.74675H138.245L138.24 8.68617C138.163 7.82222 137.813 7.14654 137.191 6.65913C136.555 6.16038 135.728 5.911 134.71 5.911ZM145.394 5.911C144.47 5.911 143.622 6.1295 142.849 6.5665C142.076 7.0035 141.463 7.60913 141.011 8.38338C140.559 9.15763 140.332 10.0293 140.332 10.9983C140.332 11.9768 140.559 12.8531 141.011 13.6274C141.463 14.4016 142.076 15.0072 142.849 15.4443C143.622 15.8813 144.47 16.0997 145.394 16.0997C146.318 16.0997 147.166 15.8813 147.939 15.4443C148.712 15.0072 149.323 14.4016 149.77 13.6274C150.218 12.8531 150.442 11.9768 150.442 10.9983C150.442 10.0293 150.218 9.15763 149.77 8.38338C149.323 7.60913 148.715 7.0035 147.946 6.5665C147.178 6.1295 146.327 5.911 145.394 5.911ZM128.762 6.0535H126.783V16H128.762V6.0535ZM145.394 7.7065C145.988 7.7065 146.511 7.8395 146.964 8.1055C147.416 8.3715 147.77 8.75387 148.024 9.25262C148.279 9.75138 148.406 10.3333 148.406 10.9983C148.406 11.6632 148.279 12.2475 148.024 12.751C147.77 13.2545 147.416 13.6416 146.964 13.9124C146.511 14.1831 145.988 14.3185 145.394 14.3185C144.8 14.3185 144.275 14.1831 143.818 13.9124C143.36 13.6416 143.005 13.2545 142.75 12.751C142.496 12.2475 142.368 11.6632 142.368 10.9983C142.368 10.3333 142.496 9.75138 142.75 9.25262C143.005 8.75387 143.36 8.3715 143.818 8.1055C144.275 7.8395 144.8 7.7065 145.394 7.7065Z" fill="white"/>
</g>
<path d="M163.328 7.488C162.88 7.312 162.536 7.056 162.296 6.72C162.056 6.384 161.936 5.976 161.936 5.496C161.936 5.064 162.044 4.676 162.26 4.332C162.476 3.98 162.796 3.704 163.22 3.504C163.652 3.296 164.172 3.192 164.78 3.192C165.388 3.192 165.904 3.296 166.328 3.504C166.76 3.704 167.084 3.98 167.3 4.332C167.524 4.676 167.636 5.064 167.636 5.496C167.636 5.96 167.512 6.368 167.264 6.72C167.016 7.064 166.676 7.32 166.244 7.488C166.74 7.64 167.132 7.908 167.42 8.292C167.716 8.668 167.864 9.124 167.864 9.66C167.864 10.18 167.736 10.636 167.48 11.028C167.224 11.412 166.86 11.712 166.388 11.928C165.924 12.136 165.388 12.24 164.78 12.24C164.172 12.24 163.636 12.136 163.172 11.928C162.716 11.712 162.36 11.412 162.104 11.028C161.848 10.636 161.72 10.18 161.72 9.66C161.72 9.124 161.864 8.664 162.152 8.28C162.44 7.896 162.832 7.632 163.328 7.488ZM166.58 5.628C166.58 5.14 166.42 4.764 166.1 4.5C165.78 4.236 165.34 4.104 164.78 4.104C164.228 4.104 163.792 4.236 163.472 4.5C163.152 4.764 162.992 5.144 162.992 5.64C162.992 6.088 163.156 6.448 163.484 6.72C163.82 6.992 164.252 7.128 164.78 7.128C165.316 7.128 165.748 6.992 166.076 6.72C166.412 6.44 166.58 6.076 166.58 5.628ZM164.78 7.968C164.188 7.968 163.704 8.108 163.328 8.388C162.952 8.66 162.764 9.072 162.764 9.624C162.764 10.136 162.944 10.548 163.304 10.86C163.672 11.172 164.164 11.328 164.78 11.328C165.396 11.328 165.884 11.172 166.244 10.86C166.604 10.548 166.784 10.136 166.784 9.624C166.784 9.088 166.6 8.68 166.232 8.4C165.864 8.112 165.38 7.968 164.78 7.968ZM169.314 7.572C169.314 6.196 169.538 5.124 169.986 4.356C170.434 3.58 171.218 3.192 172.338 3.192C173.45 3.192 174.23 3.58 174.678 4.356C175.126 5.124 175.35 6.196 175.35 7.572C175.35 8.972 175.126 10.06 174.678 10.836C174.23 11.612 173.45 12 172.338 12C171.218 12 170.434 11.612 169.986 10.836C169.538 10.06 169.314 8.972 169.314 7.572ZM174.27 7.572C174.27 6.876 174.222 6.288 174.126 5.808C174.038 5.32 173.85 4.928 173.562 4.632C173.282 4.336 172.874 4.188 172.338 4.188C171.794 4.188 171.378 4.336 171.09 4.632C170.81 4.928 170.622 5.32 170.526 5.808C170.438 6.288 170.394 6.876 170.394 7.572C170.394 8.292 170.438 8.896 170.526 9.384C170.622 9.872 170.81 10.264 171.09 10.56C171.378 10.856 171.794 11.004 172.338 11.004C172.874 11.004 173.282 10.856 173.562 10.56C173.85 10.264 174.038 9.872 174.126 9.384C174.222 8.896 174.27 8.292 174.27 7.572ZM176.849 7.572C176.849 6.196 177.073 5.124 177.521 4.356C177.969 3.58 178.753 3.192 179.873 3.192C180.985 3.192 181.765 3.58 182.213 4.356C182.661 5.124 182.885 6.196 182.885 7.572C182.885 8.972 182.661 10.06 182.213 10.836C181.765 11.612 180.985 12 179.873 12C178.753 12 177.969 11.612 177.521 10.836C177.073 10.06 176.849 8.972 176.849 7.572ZM181.805 7.572C181.805 6.876 181.757 6.288 181.661 5.808C181.573 5.32 181.385 4.928 181.097 4.632C180.817 4.336 180.409 4.188 179.873 4.188C179.329 4.188 178.913 4.336 178.625 4.632C178.345 4.928 178.157 5.32 178.061 5.808C177.973 6.288 177.929 6.876 177.929 7.572C177.929 8.292 177.973 8.896 178.061 9.384C178.157 9.872 178.345 10.264 178.625 10.56C178.913 10.856 179.329 11.004 179.873 11.004C180.409 11.004 180.817 10.856 181.097 10.56C181.385 10.264 181.573 9.872 181.661 9.384C181.757 8.896 181.805 8.292 181.805 7.572Z" fill="white"/>
<g clip-path="url(#clip3_2_339)">
<path fill-rule="evenodd" clip-rule="evenodd" d="M206 9.44452C205.038 9.44452 204.26 8.70036 204.26 7.78061C204.26 6.86295 205.038 6.11879 206 6.11879C206.96 6.11879 207.738 6.86295 207.738 7.78061C207.738 8.70036 206.96 9.44452 206 9.44452ZM206 3C203.239 3 201 5.14051 201 7.78061C201 9.70791 203.659 15.471 205.099 18.4497C205.453 19.1834 206.544 19.1834 206.901 18.4497C208.339 15.471 211 9.70791 211 7.78061C211 5.14051 208.761 3 206 3Z" fill="white"/>
</g>
<path d="M222.875 12H221.874L217.848 5.895V12H216.847V4.322H217.848L221.874 10.416V4.322H222.875V12ZM230.081 8.755C230.081 8.94567 230.07 9.14733 230.048 9.36H225.23C225.267 9.954 225.469 10.4197 225.835 10.757C226.209 11.087 226.66 11.252 227.188 11.252C227.621 11.252 227.98 11.153 228.266 10.955C228.56 10.7497 228.765 10.4783 228.882 10.141H229.96C229.799 10.7203 229.476 11.1933 228.992 11.56C228.508 11.9193 227.907 12.099 227.188 12.099C226.616 12.099 226.103 11.9707 225.648 11.714C225.201 11.4573 224.849 11.0943 224.592 10.625C224.336 10.1483 224.207 9.59833 224.207 8.975C224.207 8.35167 224.332 7.80533 224.581 7.336C224.831 6.86667 225.179 6.50733 225.626 6.258C226.081 6.00133 226.602 5.873 227.188 5.873C227.76 5.873 228.266 5.99767 228.706 6.247C229.146 6.49633 229.484 6.841 229.718 7.281C229.96 7.71367 230.081 8.205 230.081 8.755ZM229.047 8.546C229.047 8.16467 228.963 7.83833 228.794 7.567C228.626 7.28833 228.395 7.07933 228.101 6.94C227.815 6.79333 227.496 6.72 227.144 6.72C226.638 6.72 226.206 6.88133 225.846 7.204C225.494 7.52667 225.293 7.974 225.241 8.546H229.047ZM232.404 7.083C232.602 6.73833 232.895 6.45233 233.284 6.225C233.68 5.99033 234.138 5.873 234.659 5.873C235.194 5.873 235.678 6.00133 236.111 6.258C236.551 6.51467 236.895 6.87767 237.145 7.347C237.394 7.809 237.519 8.348 237.519 8.964C237.519 9.57267 237.394 10.1153 237.145 10.592C236.895 11.0687 236.551 11.439 236.111 11.703C235.678 11.967 235.194 12.099 234.659 12.099C234.145 12.099 233.691 11.9853 233.295 11.758C232.906 11.5233 232.609 11.2337 232.404 10.889V14.86H231.403V5.972H232.404V7.083ZM236.496 8.964C236.496 8.50933 236.404 8.11333 236.221 7.776C236.037 7.43867 235.788 7.182 235.473 7.006C235.165 6.83 234.824 6.742 234.45 6.742C234.083 6.742 233.742 6.83367 233.427 7.017C233.119 7.193 232.869 7.45333 232.679 7.798C232.495 8.13533 232.404 8.52767 232.404 8.975C232.404 9.42967 232.495 9.82933 232.679 10.174C232.869 10.5113 233.119 10.7717 233.427 10.955C233.742 11.131 234.083 11.219 234.45 11.219C234.824 11.219 235.165 11.131 235.473 10.955C235.788 10.7717 236.037 10.5113 236.221 10.174C236.404 9.82933 236.496 9.426 236.496 8.964ZM238.462 8.964C238.462 8.348 238.587 7.809 238.836 7.347C239.086 6.87767 239.427 6.51467 239.859 6.258C240.299 6.00133 240.787 5.873 241.322 5.873C241.85 5.873 242.309 5.98667 242.697 6.214C243.086 6.44133 243.376 6.72733 243.566 7.072V5.972H244.578V12H243.566V10.878C243.368 11.23 243.071 11.5233 242.675 11.758C242.287 11.9853 241.832 12.099 241.311 12.099C240.776 12.099 240.292 11.967 239.859 11.703C239.427 11.439 239.086 11.0687 238.836 10.592C238.587 10.1153 238.462 9.57267 238.462 8.964ZM243.566 8.975C243.566 8.52033 243.475 8.12433 243.291 7.787C243.108 7.44967 242.859 7.193 242.543 7.017C242.235 6.83367 241.894 6.742 241.52 6.742C241.146 6.742 240.805 6.83 240.497 7.006C240.189 7.182 239.944 7.43867 239.76 7.776C239.577 8.11333 239.485 8.50933 239.485 8.964C239.485 9.426 239.577 9.82933 239.76 10.174C239.944 10.5113 240.189 10.7717 240.497 10.955C240.805 11.131 241.146 11.219 241.52 11.219C241.894 11.219 242.235 11.131 242.543 10.955C242.859 10.7717 243.108 10.5113 243.291 10.174C243.475 9.82933 243.566 9.42967 243.566 8.975ZM247.271 3.86V12H246.27V3.86H247.271Z" fill="white"/>
<defs>
<clipPath id="clip0_2_339">
<rect width="16" height="16" fill="white" transform="translate(16 3)"/>
</clipPath>
<clipPath id="clip1_2_339">
<rect width="16" height="16" fill="white" transform="translate(66 3)"/>
</clipPath>
<clipPath id="clip2_2_339">
<rect width="32" height="16" fill="white" transform="translate(122 3)"/>
</clipPath>
<clipPath id="clip3_2_339">
<rect width="10" height="16" fill="white" transform="translate(201 3)"/>
</clipPath>
</defs>
</svg>
