<svg width="262" height="27" viewBox="0 0 262 27" fill="none" xmlns="http://www.w3.org/2000/svg">
<g filter="url(#filter0_d_2_196)">
<g clip-path="url(#clip0_2_196)">
<path fill-rule="evenodd" clip-rule="evenodd" d="M24.3729 3C24.4375 3 24.4899 3.05238 24.4899 3.11691V3.23936C24.4899 3.3039 24.4375 3.35628 24.3729 3.35628H24.2387V3.7507C28.3393 3.87669 31.625 7.24071 31.625 11.373C31.625 15.5856 28.2114 19 24.0004 19C19.7894 19 16.375 15.5856 16.375 11.373C16.375 7.24102 19.661 3.87708 23.7613 3.75078V3.35628H23.6271C23.5625 3.35628 23.5102 3.3039 23.5102 3.23936V3.11691C23.5102 3.05238 23.5625 3 23.6271 3H24.3729ZM24.1911 4.75062V5.41987C24.1911 5.5254 24.1055 5.61093 24 5.61093C23.8945 5.61093 23.8089 5.5254 23.8089 5.41987V4.75062C20.3016 4.85038 17.4781 7.67406 17.3788 11.1822H18.0479C18.1534 11.1822 18.239 11.2677 18.239 11.3733C18.239 11.4789 18.1534 11.5644 18.0479 11.5644H17.3788C17.4786 15.0723 20.3019 17.8962 23.8089 17.996V17.3268C23.8089 17.2212 23.8945 17.1356 24 17.1356C24.1055 17.1356 24.1911 17.2212 24.1911 17.3268V17.996C27.6984 17.8966 30.5214 15.0725 30.6212 11.5644H29.9521C29.8466 11.5644 29.7611 11.4789 29.7611 11.3733C29.7611 11.2677 29.8466 11.1822 29.9521 11.1822H30.6212C30.5219 7.67375 27.6987 4.84999 24.1911 4.75062ZM24 11.017C24.1967 11.017 24.3562 11.1765 24.3562 11.3733C24.3562 11.3936 24.3535 11.4131 24.3503 11.4324L26.6161 13.4819C26.6742 13.5345 26.7162 13.6026 26.7371 13.6782L26.7677 13.7894C26.7827 13.8435 26.7363 13.8948 26.681 13.8854L26.5672 13.866C26.4899 13.8529 26.418 13.8179 26.3598 13.7653L24.0936 11.7155C24.0636 11.7238 24.0326 11.7296 24 11.7296C23.8034 11.7296 23.6438 11.5701 23.6438 11.3733C23.6438 11.1765 23.8034 11.017 24 11.017Z" fill="white"/>
</g>
<path d="M38.456 4.32V3.324H40.712V12H39.608V4.32H38.456ZM43.3198 2.448L43.1758 4.836H42.4198L42.2638 2.448H43.3198ZM45.2299 2.448L45.0859 4.836H44.3299L44.1739 2.448H45.2299Z" fill="white"/>
<g clip-path="url(#clip1_2_196)">
<path fill-rule="evenodd" clip-rule="evenodd" d="M66.6393 13.5956L74.0234 17.8859C72.8401 18.597 71.4674 19 70 19C68.793 19 67.6569 18.7393 66.6393 18.2415V13.5956ZM66.0473 9.39976V17.9331C63.8226 16.7005 62.2842 14.4012 62.0476 11.7227L66.0473 9.39976ZM78 10.9403V11.0114C78 13.7136 76.651 16.1077 74.5919 17.5299L70.5922 15.2306L78 10.9403ZM73.9529 4.06667C76.1776 5.29926 77.716 7.59852 77.9527 10.277L73.9529 12.6V4.06667ZM65.4081 4.46963L69.4078 6.76889L62 11.0356V11.0119C62 8.28593 63.349 5.89185 65.4081 4.46963ZM70.0005 3C71.2075 3 72.3435 3.26074 73.3612 3.75852V8.38074L65.977 4.09037C67.1604 3.40296 68.5331 3 70.0005 3Z" fill="white"/>
</g>
<path d="M87.6 6.324H86.22V12H85.128V6.324H84.276V5.424H85.128V4.956C85.128 4.22 85.316 3.684 85.692 3.348C86.076 3.004 86.688 2.832 87.528 2.832V3.744C87.048 3.744 86.708 3.84 86.508 4.032C86.316 4.216 86.22 4.524 86.22 4.956V5.424H87.6V6.324ZM92.9532 0.696L89.6652 14.04H88.5852L91.8612 0.696H92.9532ZM94.1123 4.32V3.324H96.3683V12H95.2643V4.32H94.1123ZM103.08 5.388C102.904 4.5 102.356 4.056 101.436 4.056C100.724 4.056 100.192 4.332 99.84 4.884C99.488 5.428 99.316 6.328 99.324 7.584C99.508 7.168 99.812 6.844 100.236 6.612C100.668 6.372 101.148 6.252 101.676 6.252C102.5 6.252 103.156 6.508 103.644 7.02C104.14 7.532 104.388 8.24 104.388 9.144C104.388 9.688 104.28 10.176 104.064 10.608C103.856 11.04 103.536 11.384 103.104 11.64C102.68 11.896 102.164 12.024 101.556 12.024C100.732 12.024 100.088 11.84 99.624 11.472C99.16 11.104 98.836 10.596 98.652 9.948C98.468 9.3 98.376 8.5 98.376 7.548C98.376 4.612 99.4 3.144 101.448 3.144C102.232 3.144 102.848 3.356 103.296 3.78C103.744 4.204 104.008 4.74 104.088 5.388H103.08ZM101.448 7.176C101.104 7.176 100.78 7.248 100.476 7.392C100.172 7.528 99.924 7.74 99.732 8.028C99.548 8.308 99.456 8.652 99.456 9.06C99.456 9.668 99.632 10.164 99.984 10.548C100.336 10.924 100.84 11.112 101.496 11.112C102.056 11.112 102.5 10.94 102.828 10.596C103.164 10.244 103.332 9.772 103.332 9.18C103.332 8.556 103.172 8.068 102.852 7.716C102.532 7.356 102.064 7.176 101.448 7.176Z" fill="white"/>
<g clip-path="url(#clip2_2_196)">
<path fill-rule="evenodd" clip-rule="evenodd" d="M150.899 3C152.612 3 154 4.39911 154 6.125V15.875C154 17.6009 152.612 19 150.899 19H125.101C123.388 19 122 17.6009 122 15.875V6.125C122 4.39911 123.388 3 125.101 3H150.899ZM134.71 5.911C134.031 5.911 133.428 6.02737 132.9 6.26012C132.372 6.49287 131.962 6.82775 131.67 7.26475C131.378 7.70175 131.232 8.21475 131.232 8.80375C131.232 9.43075 131.375 9.93188 131.663 10.3071C131.95 10.6824 132.294 10.9626 132.695 11.1479C133.096 11.3331 133.616 11.5208 134.257 11.7107C134.729 11.8438 135.099 11.9649 135.367 12.0741C135.636 12.1834 135.86 12.333 136.039 12.523C136.218 12.713 136.308 12.9552 136.308 13.2498C136.308 13.6108 136.176 13.9029 135.912 14.1261C135.648 14.3494 135.285 14.461 134.823 14.461C134.371 14.461 134.015 14.3422 133.756 14.1047C133.507 13.8767 133.364 13.57 133.328 13.1844L133.324 13.1357H131.203L131.205 13.2006C131.225 13.7813 131.389 14.2869 131.698 14.7175C132.019 15.164 132.455 15.506 133.006 15.7435C133.558 15.981 134.177 16.0997 134.865 16.0997C135.591 16.0997 136.218 15.9644 136.746 15.6936C137.274 15.4229 137.675 15.0595 137.948 14.6035C138.221 14.1475 138.358 13.6535 138.358 13.1215C138.358 12.504 138.212 12.0052 137.92 11.6252C137.627 11.2452 137.279 10.9602 136.873 10.7702C136.468 10.5802 135.945 10.3903 135.304 10.2003C134.832 10.0578 134.467 9.93188 134.208 9.82263C133.949 9.71338 133.732 9.57087 133.558 9.39512C133.383 9.21938 133.296 8.9985 133.296 8.7325C133.296 8.3525 133.411 8.06275 133.642 7.86325C133.873 7.66375 134.182 7.564 134.569 7.564C135.012 7.564 135.367 7.67563 135.636 7.89888C135.894 8.11282 136.036 8.3813 136.064 8.70431L136.067 8.74675H138.245L138.24 8.68617C138.163 7.82222 137.813 7.14654 137.191 6.65913C136.555 6.16038 135.728 5.911 134.71 5.911ZM145.394 5.911C144.47 5.911 143.622 6.1295 142.849 6.5665C142.076 7.0035 141.463 7.60913 141.011 8.38338C140.559 9.15763 140.332 10.0293 140.332 10.9983C140.332 11.9768 140.559 12.8531 141.011 13.6274C141.463 14.4016 142.076 15.0072 142.849 15.4443C143.622 15.8813 144.47 16.0997 145.394 16.0997C146.318 16.0997 147.166 15.8813 147.939 15.4443C148.712 15.0072 149.323 14.4016 149.77 13.6274C150.218 12.8531 150.442 11.9768 150.442 10.9983C150.442 10.0293 150.218 9.15763 149.77 8.38338C149.323 7.60913 148.715 7.0035 147.946 6.5665C147.178 6.1295 146.327 5.911 145.394 5.911ZM128.762 6.0535H126.783V16H128.762V6.0535ZM145.394 7.7065C145.988 7.7065 146.511 7.8395 146.964 8.1055C147.416 8.3715 147.77 8.75387 148.024 9.25262C148.279 9.75138 148.406 10.3333 148.406 10.9983C148.406 11.6632 148.279 12.2475 148.024 12.751C147.77 13.2545 147.416 13.6416 146.964 13.9124C146.511 14.1831 145.988 14.3185 145.394 14.3185C144.8 14.3185 144.275 14.1831 143.818 13.9124C143.36 13.6416 143.005 13.2545 142.75 12.751C142.496 12.2475 142.368 11.6632 142.368 10.9983C142.368 10.3333 142.496 9.75138 142.75 9.25262C143.005 8.75387 143.36 8.3715 143.818 8.1055C144.275 7.8395 144.8 7.7065 145.394 7.7065Z" fill="white"/>
</g>
<path d="M161.48 10.068V9.24L165.692 3.408H167V9.12H168.2V10.068H167V12H165.92V10.068H161.48ZM165.968 4.548L162.74 9.12H165.968V4.548ZM169.291 7.572C169.291 6.196 169.515 5.124 169.963 4.356C170.411 3.58 171.195 3.192 172.315 3.192C173.427 3.192 174.207 3.58 174.655 4.356C175.103 5.124 175.327 6.196 175.327 7.572C175.327 8.972 175.103 10.06 174.655 10.836C174.207 11.612 173.427 12 172.315 12C171.195 12 170.411 11.612 169.963 10.836C169.515 10.06 169.291 8.972 169.291 7.572ZM174.247 7.572C174.247 6.876 174.199 6.288 174.103 5.808C174.015 5.32 173.827 4.928 173.539 4.632C173.259 4.336 172.851 4.188 172.315 4.188C171.771 4.188 171.355 4.336 171.067 4.632C170.787 4.928 170.599 5.32 170.503 5.808C170.415 6.288 170.371 6.876 170.371 7.572C170.371 8.292 170.415 8.896 170.503 9.384C170.599 9.872 170.787 10.264 171.067 10.56C171.355 10.856 171.771 11.004 172.315 11.004C172.851 11.004 173.259 10.856 173.539 10.56C173.827 10.264 174.015 9.872 174.103 9.384C174.199 8.896 174.247 8.292 174.247 7.572ZM176.826 7.572C176.826 6.196 177.05 5.124 177.498 4.356C177.946 3.58 178.73 3.192 179.85 3.192C180.962 3.192 181.742 3.58 182.19 4.356C182.638 5.124 182.862 6.196 182.862 7.572C182.862 8.972 182.638 10.06 182.19 10.836C181.742 11.612 180.962 12 179.85 12C178.73 12 177.946 11.612 177.498 10.836C177.05 10.06 176.826 8.972 176.826 7.572ZM181.782 7.572C181.782 6.876 181.734 6.288 181.638 5.808C181.55 5.32 181.362 4.928 181.074 4.632C180.794 4.336 180.386 4.188 179.85 4.188C179.306 4.188 178.89 4.336 178.602 4.632C178.322 4.928 178.134 5.32 178.038 5.808C177.95 6.288 177.906 6.876 177.906 7.572C177.906 8.292 177.95 8.896 178.038 9.384C178.134 9.872 178.322 10.264 178.602 10.56C178.89 10.856 179.306 11.004 179.85 11.004C180.386 11.004 180.794 10.856 181.074 10.56C181.362 10.264 181.55 9.872 181.638 9.384C181.734 8.896 181.782 8.292 181.782 7.572Z" fill="white"/>
<g clip-path="url(#clip3_2_196)">
<path fill-rule="evenodd" clip-rule="evenodd" d="M206 9.44452C205.038 9.44452 204.26 8.70036 204.26 7.78061C204.26 6.86295 205.038 6.11879 206 6.11879C206.96 6.11879 207.738 6.86295 207.738 7.78061C207.738 8.70036 206.96 9.44452 206 9.44452ZM206 3C203.239 3 201 5.14051 201 7.78061C201 9.70791 203.659 15.471 205.099 18.4497C205.453 19.1834 206.544 19.1834 206.901 18.4497C208.339 15.471 211 9.70791 211 7.78061C211 5.14051 208.761 3 206 3Z" fill="white"/>
</g>
<path d="M221.136 3.636V9.816C221.136 10.504 220.924 11.056 220.5 11.472C220.076 11.88 219.516 12.084 218.82 12.084C218.116 12.084 217.552 11.876 217.128 11.46C216.704 11.036 216.492 10.46 216.492 9.732H217.584C217.592 10.14 217.696 10.472 217.896 10.728C218.104 10.984 218.412 11.112 218.82 11.112C219.228 11.112 219.532 10.992 219.732 10.752C219.932 10.504 220.032 10.192 220.032 9.816V3.636H221.136ZM222.879 8.688C222.879 8.016 223.015 7.428 223.287 6.924C223.559 6.412 223.931 6.016 224.403 5.736C224.883 5.456 225.415 5.316 225.999 5.316C226.575 5.316 227.075 5.44 227.499 5.688C227.923 5.936 228.239 6.248 228.447 6.624V5.424H229.551V12H228.447V10.776C228.231 11.16 227.907 11.48 227.475 11.736C227.051 11.984 226.555 12.108 225.987 12.108C225.403 12.108 224.875 11.964 224.403 11.676C223.931 11.388 223.559 10.984 223.287 10.464C223.015 9.944 222.879 9.352 222.879 8.688ZM228.447 8.7C228.447 8.204 228.347 7.772 228.147 7.404C227.947 7.036 227.675 6.756 227.331 6.564C226.995 6.364 226.623 6.264 226.215 6.264C225.807 6.264 225.435 6.36 225.099 6.552C224.763 6.744 224.495 7.024 224.295 7.392C224.095 7.76 223.995 8.192 223.995 8.688C223.995 9.192 224.095 9.632 224.295 10.008C224.495 10.376 224.763 10.66 225.099 10.86C225.435 11.052 225.807 11.148 226.215 11.148C226.623 11.148 226.995 11.052 227.331 10.86C227.675 10.66 227.947 10.376 228.147 10.008C228.347 9.632 228.447 9.196 228.447 8.7ZM232.489 6.636C232.705 6.26 233.025 5.948 233.449 5.7C233.881 5.444 234.381 5.316 234.949 5.316C235.533 5.316 236.061 5.456 236.533 5.736C237.013 6.016 237.389 6.412 237.661 6.924C237.933 7.428 238.069 8.016 238.069 8.688C238.069 9.352 237.933 9.944 237.661 10.464C237.389 10.984 237.013 11.388 236.533 11.676C236.061 11.964 235.533 12.108 234.949 12.108C234.389 12.108 233.893 11.984 233.461 11.736C233.037 11.48 232.713 11.164 232.489 10.788V15.12H231.397V5.424H232.489V6.636ZM236.953 8.688C236.953 8.192 236.853 7.76 236.653 7.392C236.453 7.024 236.181 6.744 235.837 6.552C235.501 6.36 235.129 6.264 234.721 6.264C234.321 6.264 233.949 6.364 233.605 6.564C233.269 6.756 232.997 7.04 232.789 7.416C232.589 7.784 232.489 8.212 232.489 8.7C232.489 9.196 232.589 9.632 232.789 10.008C232.997 10.376 233.269 10.66 233.605 10.86C233.949 11.052 234.321 11.148 234.721 11.148C235.129 11.148 235.501 11.052 235.837 10.86C236.181 10.66 236.453 10.376 236.653 10.008C236.853 9.632 236.953 9.192 236.953 8.688ZM239.098 8.688C239.098 8.016 239.234 7.428 239.506 6.924C239.778 6.412 240.15 6.016 240.622 5.736C241.102 5.456 241.634 5.316 242.218 5.316C242.794 5.316 243.294 5.44 243.718 5.688C244.142 5.936 244.458 6.248 244.666 6.624V5.424H245.77V12H244.666V10.776C244.45 11.16 244.126 11.48 243.694 11.736C243.27 11.984 242.774 12.108 242.206 12.108C241.622 12.108 241.094 11.964 240.622 11.676C240.15 11.388 239.778 10.984 239.506 10.464C239.234 9.944 239.098 9.352 239.098 8.688ZM244.666 8.7C244.666 8.204 244.566 7.772 244.366 7.404C244.166 7.036 243.894 6.756 243.55 6.564C243.214 6.364 242.842 6.264 242.434 6.264C242.026 6.264 241.654 6.36 241.318 6.552C240.982 6.744 240.714 7.024 240.514 7.392C240.314 7.76 240.214 8.192 240.214 8.688C240.214 9.192 240.314 9.632 240.514 10.008C240.714 10.376 240.982 10.66 241.318 10.86C241.654 11.052 242.026 11.148 242.434 11.148C242.842 11.148 243.214 11.052 243.55 10.86C243.894 10.66 244.166 10.376 244.366 10.008C244.566 9.632 244.666 9.196 244.666 8.7ZM250.819 5.304C251.619 5.304 252.267 5.548 252.763 6.036C253.259 6.516 253.507 7.212 253.507 8.124V12H252.427V8.28C252.427 7.624 252.263 7.124 251.935 6.78C251.607 6.428 251.159 6.252 250.591 6.252C250.015 6.252 249.555 6.432 249.211 6.792C248.875 7.152 248.707 7.676 248.707 8.364V12H247.615V5.424H248.707V6.36C248.923 6.024 249.215 5.764 249.583 5.58C249.959 5.396 250.371 5.304 250.819 5.304Z" fill="white"/>
</g>
<defs>
<filter id="filter0_d_2_196" x="-3.75" y="0.696045" width="265.75" height="26.304" filterUnits="userSpaceOnUse" color-interpolation-filters="sRGB">
<feFlood flood-opacity="0" result="BackgroundImageFix"/>
<feColorMatrix in="SourceAlpha" type="matrix" values="0 0 0 0 0 0 0 0 0 0 0 0 0 0 0 0 0 0 127 0" result="hardAlpha"/>
<feOffset dy="4"/>
<feGaussianBlur stdDeviation="2"/>
<feComposite in2="hardAlpha" operator="out"/>
<feColorMatrix type="matrix" values="0 0 0 0 0 0 0 0 0 0 0 0 0 0 0 0 0 0 0.25 0"/>
<feBlend mode="normal" in2="BackgroundImageFix" result="effect1_dropShadow_2_196"/>
<feBlend mode="normal" in="SourceGraphic" in2="effect1_dropShadow_2_196" result="shape"/>
</filter>
<clipPath id="clip0_2_196">
<rect width="16" height="16" fill="white" transform="translate(16 3)"/>
</clipPath>
<clipPath id="clip1_2_196">
<rect width="16" height="16" fill="white" transform="translate(62 3)"/>
</clipPath>
<clipPath id="clip2_2_196">
<rect width="32" height="16" fill="white" transform="translate(122 3)"/>
</clipPath>
<clipPath id="clip3_2_196">
<rect width="10" height="16" fill="white" transform="translate(201 3)"/>
</clipPath>
</defs>
</svg>
